<svg width="180" height="40" viewBox="0 0 180 40" fill="none" xmlns="http://www.w3.org/2000/svg">
<path d="M47.0739 39.8689L23.5369 0.866211L0 39.8689H33.5338L30.1171 34.5447H9.4907L23.5369 11.5146L40.6202 39.8689H47.0739Z" fill="#E21A18"/>
<path d="M30.3704 0H46.8209C48.1285 0.288909 50.9968 1.362 52.7684 3.09545C54.9345 5.21487 56.0585 7.80053 56.0585 11.1436C56.0585 14.2391 54.9196 17.4583 52.6419 19.8109C50.8196 21.6929 49.9845 22.246 49.7314 22.4111L60.4875 39.8694H54.2869L42.7715 20.5538C43.6995 20.1823 45.4795 19.3156 46.1882 18.8203C47.074 18.2012 49.0987 16.7154 49.8579 15.4772C50.4653 14.4867 50.9968 13.3723 50.9968 11.3913C50.9968 9.41017 50.4906 8.04817 49.3517 6.80999C48.6745 6.07372 46.5678 5.53054 46.3147 5.44799H33.6605L30.3704 0Z" fill="#E21A18"/>
<path d="M75.0398 0H68.5861L55.9319 19.8109L68.08 39.8694H74.4071L62.259 19.8109L75.0398 0Z" fill="#E21A18"/>
<rect x="20.2466" y="22.5352" width="2.78394" height="2.724" fill="#F0EFEF"/>
<rect x="24.043" y="22.5352" width="2.78394" height="2.724" fill="#F0EFEF"/>
<rect x="24.043" y="26.25" width="2.78394" height="2.724" fill="#F0EFEF"/>
<rect x="20.2466" y="26.25" width="2.78394" height="2.724" fill="#F0EFEF"/>
</svg>
